<svg width="48" height="48" viewBox="0 0 48 48" fill="none" xmlns="http://www.w3.org/2000/svg">
<rect width="48" height="48" rx="24" fill="#5A08FF" fill-opacity="0.54"/>
<path d="M30.0001 19.16C29.9401 19.15 29.8701 19.15 29.8101 19.16C28.4301 19.11 27.3301 17.98 27.3301 16.58C27.3301 15.15 28.4801 14 29.9101 14C31.3401 14 32.4901 15.16 32.4901 16.58C32.4801 17.98 31.3801 19.11 30.0001 19.16Z" stroke="white" stroke-width="1.5" stroke-linecap="round" stroke-linejoin="round"/>
<path d="M28.9699 26.4399C30.3399 26.6699 31.8499 26.4299 32.9099 25.7199C34.3199 24.7799 34.3199 23.2399 32.9099 22.2999C31.8399 21.5899 30.3099 21.3499 28.9399 21.5899" stroke="white" stroke-width="1.5" stroke-linecap="round" stroke-linejoin="round"/>
<path d="M17.97 19.16C18.03 19.15 18.1 19.15 18.16 19.16C19.54 19.11 20.64 17.98 20.64 16.58C20.64 15.15 19.49 14 18.06 14C16.63 14 15.48 15.16 15.48 16.58C15.49 17.98 16.59 19.11 17.97 19.16Z" stroke="white" stroke-width="1.5" stroke-linecap="round" stroke-linejoin="round"/>
<path d="M18.9999 26.4399C17.6299 26.6699 16.1199 26.4299 15.0599 25.7199C13.6499 24.7799 13.6499 23.2399 15.0599 22.2999C16.1299 21.5899 17.6599 21.3499 19.0299 21.5899" stroke="white" stroke-width="1.5" stroke-linecap="round" stroke-linejoin="round"/>
<path d="M24.0001 26.63C23.9401 26.62 23.8701 26.62 23.8101 26.63C22.4301 26.58 21.3301 25.45 21.3301 24.05C21.3301 22.62 22.4801 21.47 23.9101 21.47C25.3401 21.47 26.4901 22.63 26.4901 24.05C26.4801 25.45 25.3801 26.59 24.0001 26.63Z" stroke="white" stroke-width="1.5" stroke-linecap="round" stroke-linejoin="round"/>
<path d="M21.0902 29.7799C19.6802 30.7199 19.6802 32.2599 21.0902 33.1999C22.6902 34.2699 25.3102 34.2699 26.9102 33.1999C28.3202 32.2599 28.3202 30.7199 26.9102 29.7799C25.3202 28.7199 22.6902 28.7199 21.0902 29.7799Z" stroke="white" stroke-width="1.5" stroke-linecap="round" stroke-linejoin="round"/>
</svg>
