<svg width="48" height="48" viewBox="0 0 48 48" fill="none" xmlns="http://www.w3.org/2000/svg">
<rect width="48" height="48" rx="24" transform="matrix(-1 0 0 1 48 0)" fill="#DA9100"/>
<path d="M27.5799 23.9999C27.5799 25.9799 25.9799 27.5799 23.9999 27.5799C22.0199 27.5799 20.4199 25.9799 20.4199 23.9999C20.4199 22.0199 22.0199 20.4199 23.9999 20.4199C25.9799 20.4199 27.5799 22.0199 27.5799 23.9999Z" stroke="white" stroke-width="1.5" stroke-linecap="round" stroke-linejoin="round"/>
<path d="M23.9998 32.27C27.5298 32.27 30.8198 30.19 33.1098 26.59C34.0098 25.18 34.0098 22.81 33.1098 21.4C30.8198 17.8 27.5298 15.72 23.9998 15.72C20.4698 15.72 17.1798 17.8 14.8898 21.4C13.9898 22.81 13.9898 25.18 14.8898 26.59C17.1798 30.19 20.4698 32.27 23.9998 32.27Z" stroke="white" stroke-width="1.5" stroke-linecap="round" stroke-linejoin="round"/>
</svg>
