<svg width="159" height="159" viewBox="0 0 159 159" fill="none" xmlns="http://www.w3.org/2000/svg">
<path fill-rule="evenodd" clip-rule="evenodd" d="M30.0911 64.5978C30.8389 55.7978 34.7261 47.8859 40.6273 41.9871C46.6988 35.9182 54.9176 31.9733 64.0396 31.396C67.5492 31.174 67.5566 34.5119 64.2543 34.7192C55.969 35.2446 48.5055 38.8194 42.9893 44.3407C35.9256 51.4015 33.9191 55.7386 30.0985 64.5904M117.291 20.6199C118.291 21.619 118.291 23.2547 117.291 24.2539L109.635 31.9067C108.636 32.9059 106.999 32.9059 106 31.9067C105 30.9075 105 29.2719 106 28.2727L113.656 20.6199C114.655 19.6207 116.292 19.6207 117.291 20.6199ZM86.904 1.48777C88.2738 1.85043 89.0883 3.27146 88.7254 4.63328L85.9192 15.0912C85.5564 16.4604 84.1348 17.2745 82.7724 16.9119C81.4026 16.5492 80.5882 15.1282 80.951 13.7664L83.7572 3.30846C84.12 1.93924 85.5416 1.12511 86.904 1.48777ZM51.0155 0.0889412C52.3853 -0.273718 53.7995 0.540414 54.1623 1.90964L56.9685 12.3675C57.3314 13.7368 56.5169 15.1504 55.1471 15.5204C53.7773 15.8831 52.3631 15.069 52.0003 13.6997L49.1941 3.24185C48.8239 1.87263 49.6457 0.459001 51.0155 0.0963424V0.0889412ZM19.2438 16.8157C20.2434 15.8165 21.8797 15.8165 22.8793 16.8157L30.5353 24.4685C31.5349 25.4677 31.5349 27.1033 30.5353 28.1025C29.5357 29.1017 27.8994 29.1017 26.8998 28.1025L19.2438 20.4496C18.2442 19.4505 18.2442 17.8148 19.2438 16.8157ZM0.0889693 47.1828C0.459183 45.8136 1.8734 44.9994 3.23578 45.3621L13.698 48.1671C15.0678 48.5298 15.8823 49.9508 15.5195 51.3127C15.1567 52.6819 13.735 53.496 12.3726 53.1333L1.91042 50.3283C0.54063 49.9656 -0.27384 48.5446 0.0889693 47.1828ZM134.017 52.3932C134.38 53.7625 133.566 55.1761 132.196 55.5387L121.734 58.3438C120.364 58.7065 118.95 57.8923 118.579 56.5231C118.217 55.1539 119.031 53.7402 120.401 53.3702L130.863 50.5651C132.233 50.2025 133.647 51.0166 134.01 52.3858L134.017 52.3932ZM81.1805 117.006C83.5795 117.953 85.8674 119.122 88.022 120.492V108.465C91.6427 106.563 95.952 103.735 99.8096 99.5833C107.71 91.2939 112.56 80.0811 112.56 67.7285C112.56 42.3054 91.739 21.5376 66.3498 21.5376C40.9605 21.5376 20.1397 42.2758 20.1397 67.7285C20.1397 80.0885 24.9969 91.3161 32.9195 99.6055C32.9195 99.6055 37.214 104.105 44.4035 108.132V120.484C46.6396 119.063 49.0238 117.857 51.5264 116.887C51.4672 110.885 49.7864 106.881 47.0542 101.663C35.2592 94.9427 27.3071 82.2645 27.3071 67.7211C27.3071 46.1614 44.7959 28.6798 66.3646 28.6798C87.9332 28.6798 105.422 46.1614 105.422 67.7211C105.422 82.0054 97.7439 94.4913 86.2969 101.3C83.5499 106.326 81.2323 110.885 81.1731 116.998L81.1805 117.006Z" fill="url(#paint0_linear_5552_5247)"/>
<path fill-rule="evenodd" clip-rule="evenodd" d="M47.4688 75.7217C46.7728 75.7217 46.1434 75.9363 45.6621 76.2842C45.1956 76.6246 44.8699 77.0983 44.7662 77.6312L44.6477 78.2677C43.9443 77.942 43.0188 77.868 42.2636 78.623C41.923 78.9634 41.7156 79.4297 41.7156 79.9478C41.7156 80.3326 41.8267 80.6879 42.0192 80.9765C42.2191 81.28 42.5079 81.5242 42.8485 81.6722C43.774 81.9905 45.0179 81.7759 45.9953 81.5464C45.1586 82.3013 44.1368 82.6418 43.2631 82.6048C43.3594 83.6706 43.4631 84.7363 43.5593 85.8021C46.2397 86.076 48.846 86.0538 51.393 85.8021L51.6892 82.6048C50.8155 82.6344 49.7937 82.3013 48.957 81.5464C49.9344 81.7759 51.1783 81.9905 52.1038 81.6722C52.4444 81.5242 52.7332 81.28 52.9331 80.9765C53.1256 80.6805 53.2367 80.3252 53.2367 79.9478C53.2367 79.4297 53.0294 78.9634 52.6888 78.623C51.9335 77.868 51.0006 77.942 50.3046 78.2677L50.1861 77.6312C50.0825 77.0983 49.7567 76.6246 49.2902 76.2842C48.8089 75.9289 48.1796 75.7217 47.4836 75.7217M42.419 87.0751L42.0118 82.664C41.5972 82.4198 41.2418 82.0793 40.9752 81.6796C40.6494 81.1838 40.4569 80.5917 40.4569 79.9626C40.4569 79.0966 40.8049 78.3121 41.375 77.7422C41.9452 77.1723 42.73 76.8245 43.5889 76.8245C43.6259 76.8245 43.663 76.8245 43.7 76.8245C43.9443 76.2102 44.3738 75.6773 44.9291 75.2702C45.6177 74.7669 46.5136 74.4635 47.4762 74.4635C48.4387 74.4635 49.3272 74.7669 50.0232 75.2702C50.5785 75.6773 51.008 76.2102 51.2523 76.8245C51.2894 76.8245 51.3264 76.8245 51.3634 76.8245C52.2297 76.8245 53.0146 77.1723 53.5773 77.7422C54.1474 78.3121 54.4954 79.0966 54.4954 79.9626C54.4954 80.5917 54.3029 81.1838 53.9771 81.6796C53.7106 82.0867 53.3552 82.4198 52.9405 82.664C52.8072 84.1368 52.6666 85.6023 52.5333 87.0751C48.9126 87.4156 45.5066 87.46 42.4116 87.0751H42.419Z" fill="#A47849"/>
<path fill-rule="evenodd" clip-rule="evenodd" d="M71.4882 46.931H73.3467L72.7765 45.4138C72.6062 44.9549 72.473 44.5774 72.3915 44.2814C72.3175 44.6366 72.2212 44.9845 72.0953 45.325L71.4956 46.931H71.4882ZM69.9111 49.181L72.0139 43.7115H72.7913L75.0348 49.181H74.2056L73.5688 47.5231H71.2809L70.6811 49.181H69.9111ZM63.9358 41.8834V42.1276H66.2756V42.8455H65.6536C65.6314 43.1564 65.5648 43.6375 65.3723 44.1852C65.1724 44.7625 64.8244 45.4212 64.2468 46.0281C64.3653 46.1465 64.4986 46.2649 64.6393 46.3685C64.8021 46.5017 64.9873 46.6276 65.1872 46.746L65.2686 46.7978L65.2242 46.8792L64.9502 47.3381L64.9058 47.4195L64.8244 47.3677C64.5948 47.2271 64.3875 47.0864 64.195 46.931C64.0247 46.7978 63.8692 46.6572 63.7285 46.5165C63.4398 46.746 63.114 46.9606 62.7438 47.153C62.3439 47.3603 61.8849 47.5453 61.3592 47.7007L61.2703 47.7303L61.2481 47.6415L61.1 47.1308L61.0704 47.042L61.1592 47.0124C61.6257 46.8792 62.0329 46.7164 62.3884 46.5239C62.7141 46.3537 62.9955 46.1687 63.2472 45.9763C62.3513 44.8291 62.144 43.6597 62.1218 43.4969H62.8548C62.9141 43.7929 63.1288 44.6366 63.7804 45.4878C64.2542 44.9771 64.5356 44.4294 64.7059 43.9483C64.8614 43.5043 64.9206 43.1046 64.9428 42.8455H61.1666V42.1276H63.2176V41.7872H63.9358V41.8834ZM60.9001 40.0331H70.6663L64.0173 51.7936L62.877 53.8067L63.1288 51.0831H60.8927C59.8117 51.0831 58.9306 50.2023 58.9306 49.1218V42.0092C58.9306 40.9286 59.8117 40.0479 60.8927 40.0479L60.9001 40.0331ZM71.5178 40.0331H75.0052C76.0862 40.0331 76.9674 40.9212 76.9674 41.9944V49.107C76.9674 50.1875 76.0862 51.0683 75.0052 51.0683H66.6606L63.8766 53.5329L64.8095 51.8898L71.5178 40.0257V40.0331Z" fill="#E40839"/>
<path fill-rule="evenodd" clip-rule="evenodd" d="M70.6441 58.9432C71.1624 58.9432 71.5845 59.365 71.5845 59.8831C71.5845 60.4012 71.1624 60.8231 70.6441 60.8231C70.1258 60.8231 69.7038 60.4012 69.7038 59.8831C69.7038 59.365 70.1258 58.9432 70.6441 58.9432ZM62.3513 63.2581C63.1436 63.2581 63.7804 63.902 63.7804 64.6865C63.7804 65.471 63.1362 66.1149 62.3513 66.1149C61.5665 66.1149 60.9223 65.471 60.9223 64.6865C60.9223 63.902 61.5665 63.2581 62.3513 63.2581ZM62.3513 63.7021C62.8993 63.7021 63.3361 64.1462 63.3361 64.6865C63.3361 65.2268 62.8993 65.6709 62.3513 65.6709C61.8034 65.6709 61.3666 65.2268 61.3666 64.6865C61.3666 64.1462 61.8108 63.7021 62.3513 63.7021ZM68.1415 69.3789C68.7782 69.3789 69.2669 69.8969 69.2669 70.5112C69.2669 71.1255 68.7634 71.6362 68.1415 71.6362C67.5195 71.6362 67.016 71.1329 67.016 70.5112C67.016 69.8895 67.5269 69.3789 68.1415 69.3789ZM72.9987 63.0138C73.517 63.0138 73.939 63.4357 73.939 63.9538C73.939 64.4719 73.517 64.8937 72.9987 64.8937C72.4804 64.8937 72.0583 64.4719 72.0583 63.9538C72.0583 63.4357 72.4804 63.0138 72.9987 63.0138ZM72.9987 63.3099C73.3541 63.3099 73.6428 63.5985 73.6428 63.9538C73.6428 64.309 73.3541 64.5977 72.9987 64.5977C72.6433 64.5977 72.3545 64.309 72.3545 63.9538C72.3545 63.5985 72.6433 63.3099 72.9987 63.3099ZM66.7569 69.6305C66.594 69.8969 66.4977 70.193 66.4977 70.5112C66.4977 71.4142 67.2307 72.1543 68.1415 72.1543C69.0522 72.1543 69.7852 71.4216 69.7852 70.5112C69.7852 69.6009 69.0892 68.8682 68.1415 68.8682C67.5565 68.8682 67.0456 69.1716 66.7569 69.6305ZM70.6959 70.5112C70.6959 70.8887 70.6145 71.2514 70.4664 71.577L71.6363 74.0046H74.5017V76.6246H61.796V74.0046H64.6615L65.8387 71.6066C65.7055 71.318 65.6166 70.9997 65.5944 70.6667L64.7355 69.6305L62.4846 66.9069C62.4402 66.9069 62.3958 66.9069 62.3513 66.9069C61.1222 66.9069 60.1227 65.9077 60.1227 64.6791C60.1227 63.4505 61.1222 62.4513 62.3513 62.4513C62.6401 62.4513 62.9215 62.5031 63.1732 62.6068L69.0226 59.5575C69.1707 58.7951 69.8371 58.2252 70.6367 58.2252C71.5474 58.2252 72.2805 58.958 72.2805 59.8683C72.2805 60.1422 72.2138 60.4012 72.0879 60.6306L73.2208 62.5031C73.6725 62.5771 74.0501 62.8584 74.2648 63.2433L75.8493 63.7243L76.1455 64.3608L75.4273 67.1955L75.1089 66.6108L75.3236 64.7901L74.2944 64.5903C74.0575 65.0714 73.554 65.4044 72.9839 65.4044H72.9617L72.5766 66.4258L74.2426 67.2029L74.5684 67.7802L71.777 66.8995L71.3919 66.3148L71.7918 64.7901C71.6215 64.5533 71.5252 64.2572 71.5252 63.9464C71.5252 63.7317 71.5696 63.5245 71.6585 63.3395L70.5479 61.5114C70.3628 61.504 70.185 61.4596 70.0148 61.393L64.6467 64.8493L68.3266 67.9578C69.7112 68.0688 70.6811 69.2308 70.6811 70.5038L70.6959 70.5112Z" fill="#A29F9D"/>
<path fill-rule="evenodd" clip-rule="evenodd" d="M83.994 77.6312C84.727 77.6312 85.3268 78.2233 85.3268 78.9634C85.3268 79.7035 84.7344 80.2956 83.994 80.2956C83.2536 80.2956 82.6612 79.6961 82.6612 78.9634C82.6612 78.2307 83.2536 77.6312 83.994 77.6312ZM85.3712 81.3762C86.1042 81.3762 86.704 81.9757 86.704 82.7084C86.704 83.4411 86.1042 84.0406 85.3712 84.0406C84.6382 84.0406 84.0384 83.4411 84.0384 82.7084C84.0384 81.9757 84.6308 81.3762 85.3712 81.3762ZM91.1095 86.6014C90.532 86.7643 89.873 86.8457 89.1918 86.8457C84.8307 86.8457 81.2915 83.863 81.2915 80.192C81.2915 78.1789 82.3503 76.3804 84.0236 75.1592C84.8085 74.5893 85.9339 74.1082 87.1556 73.7752C87.1038 73.9454 87.0668 74.1156 87.0446 74.2858C87.0149 74.5301 87.0298 74.7743 87.0742 75.0186C86.9779 74.9964 86.8891 74.989 86.7854 74.989C86.0524 74.989 85.4527 75.5885 85.4527 76.3212C85.4527 77.0539 86.045 77.6534 86.7854 77.6534C87.2445 77.6534 87.6517 77.4166 87.8886 77.0687L88.1108 77.7496C88.133 77.8162 88.1922 78.0012 88.3551 78.1197L89.8508 82.7306C89.8508 82.7306 89.7841 82.7306 89.7545 82.7306C88.6587 82.7306 87.7776 83.3745 87.7776 84.159C87.7776 84.9436 88.6661 85.5875 89.7545 85.5875C90.1025 85.5875 90.4357 85.5209 90.7245 85.4024L91.1095 86.594V86.6014ZM90.9984 81.5464C91.1391 81.7167 91.302 81.8721 91.4871 82.0127C93.9009 83.9074 93.5677 85.395 92.1387 86.1944L91.7093 84.4329C91.7315 84.3441 91.7463 84.2553 91.7463 84.1664C91.7463 83.9 91.6426 83.6484 91.4649 83.4337L91.0059 81.5538L90.9984 81.5464ZM88.0441 73.1091C88.1182 74.1526 89.103 74.5893 88.9549 75.4922L89.214 75.4182C89.251 75.1962 89.214 74.9001 89.1474 74.6781C89.0511 74.4117 88.866 74.2488 88.6661 74.0194C88.4662 73.7974 88.2885 73.5531 88.0515 73.1091H88.0441ZM89.3917 75.5811C89.6805 74.0712 88.3255 73.9306 88.1404 72.776C87.1112 73.6419 87.0224 75.0186 87.7998 76.0399L89.3917 75.5885V75.5811ZM88.5624 77.9568L91.5093 87.0381C91.6204 87.3786 91.7981 87.5044 91.924 87.46C92.0573 87.4304 92.1387 87.2305 92.0498 86.8827L89.7841 77.609C89.873 77.4832 89.8286 77.3055 89.8212 77.2537C89.6435 76.5136 89.6361 76.4988 89.4584 75.7661L87.8812 76.2102C88.1182 76.9355 88.1182 76.9503 88.3551 77.6682C88.3699 77.7126 88.4218 77.8902 88.5698 77.9494L88.5624 77.9568ZM92.1905 73.4643C94.4044 73.9602 95.0412 76.2398 93.0198 77.0465C91.5982 77.609 90.6578 78.0308 90.3765 79.0226L90.0433 77.646C90.1173 77.461 90.0729 77.2759 90.0581 77.2019V77.1945L89.8138 76.2028C90.0581 76.4914 90.4209 76.6764 90.8281 76.6764C91.5612 76.6764 92.1609 76.0769 92.1609 75.3442C92.1609 74.6115 91.5612 74.012 90.8281 74.012C90.3098 74.012 89.8582 74.3154 89.6361 74.7521C89.525 74.308 89.251 74.0046 88.9697 73.7012C88.8956 73.6197 88.8142 73.5383 88.7475 73.4495C89.9915 73.2645 91.228 73.2497 92.1979 73.4643H92.1905Z" fill="#844594"/>
<path fill-rule="evenodd" clip-rule="evenodd" d="M83.9422 95.8974L74.7683 105.252H57.9384L51.8077 101.648C54.3547 106.459 55.9096 109.982 55.9096 115.481C59.1971 114.622 62.6475 114.164 66.209 114.164C69.7704 114.164 73.4133 114.645 76.7822 115.548C76.7822 107.843 80.3733 102.618 83.9348 95.89M66.209 158.993L75.9752 142.088L80.8694 133.606C76.5527 131.112 71.5474 129.684 66.209 129.684C60.8705 129.684 55.8578 131.112 51.5485 133.606L56.4427 142.088L66.209 158.993Z" fill="#3CB8BB"/>
<path fill-rule="evenodd" clip-rule="evenodd" d="M68.2377 95.8751C69.2003 95.8529 69.9925 96.6153 70.0073 97.5774C70.0296 98.5396 69.2669 99.3315 68.3044 99.3537C67.3418 99.3759 66.5495 98.6136 66.5273 97.6514C66.5051 96.6893 67.2678 95.8974 68.2303 95.8826M62.0848 91.8119C63.0473 91.8119 63.8248 92.589 63.8248 93.5512C63.8248 94.5133 63.0473 95.2905 62.0848 95.2905C61.1222 95.2905 60.3448 94.5133 60.3448 93.5512C60.3448 92.589 61.1222 91.8119 62.0848 91.8119ZM61.5665 89.6433H62.6031L62.877 90.6943C63.114 90.7609 63.3361 90.8497 63.5434 90.9682L64.4838 90.4205L65.2168 91.1532L64.6689 92.0931C64.7873 92.3004 64.8762 92.5224 64.9428 92.7518L66.0016 93.0257V94.0619L64.9428 94.3357C64.8762 94.5725 64.7873 94.7946 64.6689 95.0018L65.2168 95.9418L64.4838 96.6745L63.5434 96.1268C63.3361 96.2452 63.114 96.334 62.877 96.4006L62.6031 97.4516H61.5665L61.2925 96.4006C61.063 96.334 60.8335 96.2452 60.6261 96.1268L59.6858 96.6745L58.9528 95.9418L59.5007 95.0018C59.3822 94.7946 59.2934 94.5725 59.2267 94.3357L58.1753 94.0619V93.0257L59.2267 92.7518C59.2934 92.515 59.3822 92.3004 59.5007 92.0931L58.9528 91.1532L59.6858 90.4205L60.6261 90.9682C60.8335 90.8497 61.0556 90.7609 61.2851 90.6943L61.5591 89.6433H61.5665ZM69.8074 85.9353C71.1772 85.9353 72.2953 87.0455 72.2953 88.4147C72.2953 89.784 71.1846 90.8941 69.8074 90.8941C68.4302 90.8941 67.327 89.784 67.327 88.4147C67.327 87.0455 68.4376 85.9353 69.8074 85.9353ZM69.067 82.8342H70.5479L70.9403 84.3441C71.2735 84.4329 71.5919 84.5661 71.888 84.7363L73.2356 83.9518L74.2796 84.9954L73.4948 86.3424C73.6651 86.6385 73.7983 86.9567 73.8872 87.2898L75.3976 87.682V89.1623L73.8872 89.5545C73.7983 89.8876 73.6651 90.2058 73.4948 90.5019L74.2796 91.8489L73.2356 92.8925L71.888 92.1079C71.5919 92.2782 71.2735 92.4114 70.9403 92.5002L70.5479 94.01H69.067L68.6746 92.5002C68.3414 92.404 68.023 92.2782 67.7268 92.1079L66.3793 92.8925L65.3352 91.8489L66.1201 90.5019C65.9498 90.2058 65.8239 89.8876 65.7277 89.5545L64.2172 89.1623V87.682L65.7277 87.2898C65.8239 86.9567 65.9572 86.6385 66.1201 86.3424L65.3352 84.9954L66.3793 83.9518L67.7268 84.7363C68.023 84.5661 68.3414 84.4329 68.6746 84.3441L69.067 82.8342ZM67.6676 93.7288L68.7042 93.7066L69.0004 94.7576C69.2373 94.8168 69.4594 94.9056 69.6667 95.0166L70.5997 94.4467L71.3475 95.1646L70.8144 96.1194C70.9329 96.3266 71.0365 96.5413 71.1032 96.7781L72.162 97.0297L72.1842 98.0659L71.1328 98.362C71.0736 98.5988 70.9847 98.8208 70.8736 99.0281L71.4438 99.9606L70.7256 100.708L69.7704 100.175C69.5705 100.294 69.3484 100.397 69.1114 100.464L68.8597 101.522L67.8231 101.544L67.5269 100.494C67.29 100.434 67.0679 100.345 66.8605 100.234L65.9276 100.804L65.1798 100.086L65.7129 99.1391C65.5944 98.9318 65.4981 98.7172 65.4241 98.4804L64.3653 98.2287L64.3431 97.1926L65.3945 96.8965C65.4537 96.6597 65.5426 96.4376 65.6536 96.2304L65.0835 95.2979L65.8017 94.5503L66.7569 95.0832C66.9642 94.9648 67.1789 94.8612 67.4159 94.7946L67.6676 93.7362V93.7288Z" fill="#6D6968"/>
<path fill-rule="evenodd" clip-rule="evenodd" d="M89.2584 63.1396C89.5102 63.1396 89.7101 63.3395 89.7101 63.5911C89.7101 63.8428 89.5102 64.0426 89.2584 64.0426C89.0067 64.0426 88.8068 63.8428 88.8068 63.5911C88.8068 63.3395 89.0067 63.1396 89.2584 63.1396ZM89.9544 53.8733C90.1395 53.8955 90.3173 53.9177 90.5024 53.9473H96.2555C96.3517 53.6587 96.6183 53.4589 96.9367 53.4589C97.3291 53.4589 97.6549 53.7771 97.6549 54.1768C97.6549 54.5764 97.3365 54.8947 96.9367 54.8947C96.6183 54.8947 96.3517 54.6875 96.2555 54.4062H92.1683C93.4345 54.8799 94.5599 55.6126 95.5002 56.5526C97.1884 58.24 98.2324 60.564 98.2324 63.1396H97.5364C97.5364 60.7565 96.5739 58.6027 95.0116 57.0485C93.6862 55.7236 91.924 54.8207 89.9618 54.5839V55.2278H87.8738V54.5839C85.9117 54.8207 84.1495 55.7162 82.8241 57.0485C81.2618 58.6101 80.2993 60.7639 80.2993 63.1396H79.6033C79.6033 60.564 80.6473 58.24 82.3354 56.5526C83.2684 55.62 84.4012 54.8799 85.6674 54.4062H81.5802C81.484 54.6949 81.2174 54.8947 80.899 54.8947C80.5066 54.8947 80.1808 54.5764 80.1808 54.1768C80.1808 53.7771 80.4992 53.4589 80.899 53.4589C81.2174 53.4589 81.484 53.6661 81.5802 53.9473H87.3333C87.511 53.9177 87.6961 53.8881 87.8813 53.8733V53.1332H89.9693V53.8733H89.9544ZM85.6229 66.0039H86.8669L85.4008 62.1405L87.3259 58.8617L89.0511 55.9309V62.7252C88.6513 62.8214 88.3551 63.1766 88.3551 63.5985C88.3551 64.0944 88.755 64.4941 89.251 64.4941C89.7471 64.4941 90.147 64.0944 90.147 63.5985C90.147 63.1766 89.8508 62.814 89.451 62.7252V55.9309L91.1761 58.8617L93.1013 62.1405L91.6352 66.0039H92.8791C93.2642 66.0039 93.5751 66.3148 93.5751 66.6996C93.5751 67.0845 93.2642 67.3953 92.8791 67.3953H85.6081C85.2231 67.3953 84.9121 67.0845 84.9121 66.6996C84.9121 66.3148 85.2231 66.0039 85.6081 66.0039H85.6229Z" fill="#C8348B"/>
<path fill-rule="evenodd" clip-rule="evenodd" d="M55.2284 63.4135C54.488 66.4406 51.9335 68.7571 48.7793 69.142L51.5115 60.7194L55.2284 63.4135ZM51.8447 55.1685C53.9993 56.5082 55.4358 58.8913 55.4358 61.615C55.4358 62.1109 55.3913 62.5994 55.2951 63.0656L48.1277 57.8626L51.8373 55.1685H51.8447ZM47.8612 54.0362C49.2014 54.0362 50.4527 54.384 51.5485 54.9909L44.3812 60.2014L42.967 55.8421C44.2923 54.7245 46.0027 54.0436 47.8686 54.0436L47.8612 54.0362ZM40.8419 64.4941C40.4791 63.6059 40.2792 62.6364 40.2792 61.6224C40.2792 59.4316 41.2122 57.4555 42.7004 56.0715L45.44 64.4941H40.8493H40.8419ZM48.4239 69.179C48.2388 69.1938 48.0463 69.2012 47.8612 69.2012C44.818 69.2012 42.1895 67.4027 40.9826 64.8197H49.8455L48.4239 69.179Z" fill="#F8AE00"/>
<path fill-rule="evenodd" clip-rule="evenodd" d="M257.994 119.463C257.75 116.983 257.091 114.726 254.44 113.542C252.745 114.482 252.012 116.073 251.367 117.723C253.759 118.064 256.003 118.597 257.994 119.463ZM230.636 110.848C230.895 113.557 230.673 116.251 229.851 117.709C231.842 118.249 233.508 118.945 235.011 119.722C235.248 115.895 233.427 112.928 230.636 110.848ZM223.453 117.176C225.838 117.242 228 110.663 224.342 110.456C220.514 110.241 220.803 117.102 223.453 117.176ZM184.551 110.307C185.958 108.576 187.358 106.844 188.764 105.112C196.22 117.294 193.296 129.336 185.507 137.855C183.729 136.034 181.952 134.213 180.175 132.393C188.083 126.361 191.378 119.381 184.559 110.307H184.551ZM253.293 123.126C255.581 124.052 257.55 125.376 259.371 126.886C260.941 126.013 262.304 123.622 261.956 118.353C261.548 112.217 258.809 108.087 254.129 107.221C249.191 107.991 247.932 112.654 247.088 117.753H240.091C239.402 110.241 233.59 106.133 226.571 104.771C225.045 104.475 223.29 103.891 221.847 101.493C218.863 102.662 219.152 104.135 221.232 107.214C215.412 110.581 215.945 114.149 217.382 117.746H203.973L203.728 93.6696L198.116 96.9113V123.082H230.702C234.33 124.584 236.085 126.183 237.44 127.797C238.158 127.153 239.165 125.487 239.728 123.082C244.245 123.082 248.761 123.097 253.27 123.119L253.293 123.126Z" fill="url(#paint1_linear_5552_5247)"/>
<path opacity="0.2" fill-rule="evenodd" clip-rule="evenodd" d="M30.0911 64.5978C30.8389 55.7978 34.7261 47.8859 40.6273 41.9871C46.6988 35.9182 54.9102 31.9733 64.0396 31.396C67.5492 31.174 67.5566 34.5119 64.2543 34.7192C55.969 35.2446 48.5055 38.8194 42.9893 44.3407C35.9256 51.4015 33.9191 55.7386 30.0985 64.5904M117.291 20.6199C118.291 21.619 118.291 23.2547 117.291 24.2539L109.635 31.9067C108.636 32.9059 106.999 32.9059 106 31.9067C105 30.9075 105 29.2719 106 28.2727L113.656 20.6199C114.655 19.6207 116.292 19.6207 117.291 20.6199ZM86.904 1.48777C88.2738 1.85043 89.0883 3.27146 88.7254 4.63328L85.9192 15.0912C85.5564 16.4604 84.1348 17.2745 82.7724 16.9119C81.4026 16.5492 80.5882 15.1282 80.951 13.7664L83.7572 3.30846C84.12 1.93924 85.5416 1.12511 86.904 1.48777ZM51.0155 0.0889412C52.3853 -0.273718 53.7995 0.540414 54.1623 1.90964L56.9685 12.3675C57.3314 13.7368 56.5169 15.1504 55.1471 15.5204C53.7773 15.8831 52.3631 15.069 52.0003 13.6997L49.1941 3.24185C48.8239 1.87263 49.6457 0.459001 51.0155 0.0963424V0.0889412ZM19.2438 16.8157C20.2434 15.8165 21.8797 15.8165 22.8793 16.8157L30.5353 24.4685C31.5349 25.4677 31.5349 27.1033 30.5353 28.1025C29.5357 29.1017 27.8994 29.1017 26.8998 28.1025L19.2438 20.4496C18.2442 19.4505 18.2442 17.8148 19.2438 16.8157ZM0.0889693 47.1828C0.459183 45.8136 1.8734 44.9994 3.23578 45.3621L13.698 48.1671C15.0678 48.5298 15.8823 49.9508 15.5195 51.3127C15.1567 52.6819 13.735 53.496 12.3726 53.1333L1.91042 50.3283C0.54063 49.9656 -0.27384 48.5446 0.0889693 47.1828ZM110.664 54.6654C104.985 35.5555 87.215 21.5376 66.3498 21.5376C40.9161 21.5376 20.1397 42.2758 20.1397 67.7285C20.1397 69.9785 20.3026 72.1914 20.6136 74.3526C23.131 75.3296 25.7299 76.1881 28.4029 76.9282C27.6921 73.9825 27.3145 70.9036 27.3145 67.7359C27.3145 46.1762 44.8033 28.6946 66.372 28.6946C85.5712 28.6946 101.542 42.5496 104.815 60.801C106.933 58.8693 108.887 56.8191 110.664 54.6728V54.6654Z" fill="white"/>
<defs>
<linearGradient id="paint0_linear_5552_5247" x1="67.0532" y1="126.62" x2="67.0532" y2="-0.747395" gradientUnits="userSpaceOnUse">
<stop stop-color="#2B53A1"/>
<stop offset="1" stop-color="#2D93D1"/>
</linearGradient>
</defs>
</svg>
