<svg width="20" height="20" viewBox="0 0 20 20" fill="none" xmlns="http://www.w3.org/2000/svg">
<path fill-rule="evenodd" clip-rule="evenodd" d="M10 0C15.523 0 20 4.477 20 10C20 15.523 15.523 20 10 20C4.477 20 0 15.523 0 10C0 4.477 4.477 0 10 0ZM6.46997 13.53C6.61597 13.676 6.808 13.75 7 13.75C7.192 13.75 7.38403 13.677 7.53003 13.53L10.53 10.53C10.671 10.389 10.75 10.198 10.75 10V5C10.75 4.586 10.414 4.25 10 4.25C9.586 4.25 9.25 4.586 9.25 5V9.68896L6.46997 12.469C6.17697 12.763 6.17697 13.237 6.46997 13.53Z" fill="#3CB8BB"/>
</svg>
