<svg width="75" height="62" viewBox="0 0 75 62" fill="none" xmlns="http://www.w3.org/2000/svg">
<path d="M2.16712 61.9569C1.99375 61.9569 1.77704 61.8274 1.73369 61.6548C1.1269 59.9722 0.693475 58.2032 0.390078 56.4342C0.346736 56.1754 0.520106 55.9596 0.78016 55.9165C1.04021 55.8733 1.25693 56.0459 1.30027 56.3048C1.60367 58.0306 2.03709 59.7564 2.60054 61.396C2.68723 61.6548 2.5572 61.9137 2.29714 62C2.2538 61.9569 2.21046 61.9569 2.16712 61.9569ZM0.476765 51.5157C0.216711 51.5157 0 51.2999 0 51.0411C0.0433423 49.2289 0.21671 47.4168 0.563448 45.6479C0.606791 45.389 0.866846 45.2164 1.1269 45.3027C1.38695 45.3459 1.56032 45.6047 1.47364 45.8636C1.1269 47.5894 0.953531 49.3152 0.910188 51.0842C0.910188 51.2999 0.693477 51.5157 0.476765 51.5157ZM2.51385 41.1176C2.47051 41.1176 2.38383 41.1176 2.34048 41.0745C2.08043 40.9882 1.99375 40.7293 2.08043 40.4704C2.5572 39.3055 3.0773 38.1837 3.64075 37.1051C3.90081 36.6305 4.2042 36.1127 4.5076 35.6381C4.63763 35.4224 4.94102 35.3361 5.15774 35.5087C5.37445 35.6381 5.46113 35.9401 5.28776 36.1559C4.98437 36.6305 4.72432 37.1051 4.46426 37.5797C3.90081 38.6152 3.3807 39.7369 2.94728 40.8587C2.86059 40.9882 2.68722 41.1176 2.51385 41.1176ZM38.0546 40.1253C37.4911 40.1253 36.8843 39.9958 36.2775 39.6938C36.0608 39.6075 35.9308 39.3055 36.0608 39.0898C36.1475 38.8309 36.4509 38.7446 36.6676 38.874C37.1444 39.0898 37.6212 39.2192 38.0546 39.2192C39.4415 39.2192 40.0917 38.0543 40.3517 37.4071C40.4384 37.1482 40.6985 37.0619 40.9585 37.1482C41.2186 37.2345 41.3052 37.4934 41.2186 37.7523C40.6551 39.2192 39.4849 40.1253 38.0546 40.1253ZM32.5068 36.2853C32.3767 36.2853 32.2034 36.199 32.1167 36.1127C31.0765 34.6889 30.2963 33.0063 29.8195 31.151C29.7328 30.8921 29.9062 30.6333 30.1663 30.5901C30.4263 30.5038 30.6864 30.6764 30.7297 30.9353C31.2065 32.7042 31.9 34.2575 32.8535 35.595C32.9835 35.8107 32.9402 36.1127 32.7668 36.2422C32.6801 36.2422 32.5934 36.2853 32.5068 36.2853ZM40.5684 32.7905C40.3951 32.7905 40.2217 32.6611 40.135 32.4885C39.7016 31.3667 39.0081 30.3744 38.1413 29.5546C37.7512 29.2095 37.4044 28.8643 36.971 28.5623C36.7543 28.3897 36.711 28.1308 36.8843 27.9151C37.0577 27.6994 37.3177 27.6562 37.5345 27.8288C37.9679 28.174 38.358 28.476 38.7481 28.8643C39.7449 29.7704 40.4817 30.849 40.9585 32.1434C41.0452 32.4022 40.9585 32.6611 40.6985 32.7474C40.6551 32.7905 40.6118 32.7905 40.5684 32.7905ZM8.1917 32.1434C8.06167 32.1434 7.97499 32.1002 7.8883 32.0139C7.71494 31.8413 7.71494 31.5393 7.8883 31.3667C9.14523 30.0292 10.5322 28.8643 12.0058 27.8288C12.2225 27.6994 12.5259 27.7425 12.656 27.9582C12.786 28.174 12.7426 28.476 12.5259 28.6054C11.0956 29.5978 9.75203 30.7196 8.53844 32.0139C8.40841 32.1002 8.27838 32.1434 8.1917 32.1434ZM29.6895 26.1893C29.3861 26.1893 29.2127 25.9736 29.2127 25.7147C29.2127 25.499 29.2127 25.2832 29.2127 25.0675C28.6059 24.9381 27.9991 24.8518 27.349 24.7655C27.089 24.7223 26.9156 24.5066 26.9589 24.2477C27.0023 23.9889 27.219 23.8163 27.479 23.8594C28.0858 23.9457 28.6926 24.032 29.2994 24.1614C29.3861 22.9102 29.6028 21.6159 29.9496 20.3646C29.9929 20.1058 30.253 19.9332 30.513 20.0195C30.7731 20.0626 30.9031 20.3215 30.8597 20.5804C30.5563 21.8316 30.3396 23.126 30.253 24.3772C31.1198 24.5929 31.9866 24.8518 32.8102 25.1969C33.0702 25.2832 33.1569 25.5421 33.0702 25.801C32.9835 26.0598 32.6801 26.1461 32.4634 26.0598C31.7266 25.7578 30.9464 25.5421 30.1663 25.3264C30.1663 25.4558 30.1663 25.6284 30.1663 25.7578C30.1229 25.9736 29.9496 26.1893 29.6895 26.1893ZM16.9469 26.1461C16.7735 26.1461 16.6001 26.0167 16.5134 25.8441C16.4267 25.5852 16.5134 25.3264 16.7735 25.2401C17.6837 24.8518 18.6372 24.5498 19.5907 24.334C20.3709 24.1183 21.1944 23.9889 22.0612 23.8594C22.3213 23.8163 22.538 23.9889 22.5814 24.2477C22.6247 24.5066 22.4513 24.7223 22.1913 24.7655C21.3678 24.8949 20.5876 25.0244 19.8508 25.1969C18.9406 25.4127 18.0304 25.7147 17.1636 26.0598C17.0335 26.1461 16.9902 26.1461 16.9469 26.1461ZM32.2467 15.9207C32.16 15.9207 32.1167 15.9207 32.03 15.8775C31.8133 15.7481 31.7266 15.4892 31.8133 15.2735C32.7235 13.5477 33.7637 12.1239 34.9773 11.0021C35.1506 10.8295 35.5407 10.7864 35.7141 10.9589C35.8875 11.1315 35.9308 11.3904 35.7574 11.563C34.5005 12.7279 33.5036 14.0654 32.6801 15.7049C32.5501 15.8344 32.4201 15.9207 32.2467 15.9207ZM39.5282 8.28393C39.3982 8.28393 39.2682 8.24078 39.1381 8.11134C38.9648 7.89562 39.0081 7.63674 39.2248 7.46416C40.6985 6.34238 42.2154 5.35003 43.7324 4.48713C43.9491 4.35769 44.2525 4.44398 44.3826 4.65971C44.5126 4.87543 44.4259 5.17745 44.2092 5.30689C42.7355 6.1698 41.2619 7.119 39.7883 8.24078C39.7016 8.24078 39.6149 8.28393 39.5282 8.28393ZM74.5055 5.13431C74.4188 5.13431 74.3321 5.13431 74.2454 5.04802C72.7284 4.14196 71.1248 3.36534 69.5211 2.76131C69.2611 2.67502 69.1744 2.41614 69.2611 2.15727C69.3477 1.8984 69.6078 1.76896 69.8679 1.8984C71.5582 2.54558 73.2052 3.3222 74.7655 4.2714C74.9822 4.40083 75.0689 4.70285 74.9389 4.91858C74.8089 5.04802 74.6355 5.13431 74.5055 5.13431ZM48.7601 3.02018C48.5868 3.02018 48.4134 2.89074 48.3267 2.71816C48.24 2.45929 48.3267 2.20042 48.5868 2.11413C50.3205 1.4238 52.0541 0.906054 53.7878 0.560891C54.0479 0.517745 54.2646 0.690327 54.3513 0.906054C54.3946 1.16493 54.2213 1.38065 54.0046 1.46694C52.3142 1.81211 50.6239 2.32985 48.9768 2.97704C48.8902 2.97704 48.8468 3.02018 48.7601 3.02018ZM64.5368 1.38065C62.8464 1.07864 61.156 0.9492 59.5524 0.9492H59.249C58.9889 0.9492 58.7722 0.733472 58.7722 0.4746C58.7722 0.215727 58.9889 0 59.249 0H59.5524C61.2427 0 62.9764 0.172582 64.6668 0.4746C64.9268 0.517745 65.1002 0.776618 65.0568 1.03549C64.9268 1.20807 64.7535 1.38065 64.5368 1.38065Z" fill="#F2EFE9"/>
</svg>
